<svg width="110" height="58" viewBox="0 0 110 58" fill="none" xmlns="http://www.w3.org/2000/svg">
<rect x="0.623779" width="108.956" height="56.0782" transform="rotate(0.637233 0.623779 0)" fill="#D5D7BB" fill-opacity="0.9"/>
<path d="M31.5562 34.9816C33.4687 33.7685 34.7286 32.8963 35.3358 32.365C38.0519 30.053 39.1442 28.5934 38.6129 27.9862C38.3316 27.6665 37.6055 27.5002 36.4346 27.4872C34.4092 27.4646 32.6491 27.7774 31.1543 28.4254C30.6139 28.641 30.2791 28.8588 30.1501 29.0789C30.021 29.299 29.9044 29.82 29.8003 30.6417C29.3864 33.7072 29.3203 35.384 29.602 35.672C29.8527 35.8963 30.5041 35.6662 31.5562 34.9816ZM30.1759 26.7529C30.3342 26.7547 31.0506 26.367 32.3253 25.5899C33.6319 24.7815 34.4611 24.221 34.8127 23.9085C35.1967 23.5329 35.4995 23.3464 35.721 23.3488C36.1007 23.3531 36.1498 23.2112 35.8681 22.9232C35.6804 22.7312 35.3973 22.5698 35.019 22.439C34.4514 22.2428 33.598 22.1383 32.4588 22.1257C31.3515 22.0817 30.6862 22.1376 30.4629 22.2934C30.3353 22.3869 30.2197 22.8129 30.1164 23.5714C30.045 24.2985 30.0054 25.0102 29.9977 25.7065C30.0216 26.403 30.081 26.7518 30.1759 26.7529ZM31.7318 36.2654C31.7304 36.3919 31.5078 36.4844 31.064 36.5428C30.6206 36.5695 30.3984 36.6303 30.3973 36.7253C30.3323 36.8828 29.6631 37.2868 28.3899 37.9373C27.1483 38.5882 26.2894 38.9742 25.8133 39.0956C25.3368 39.2485 24.9588 39.0861 24.6793 38.6082C24.4318 38.099 24.4685 37.6405 24.7896 37.2326C25.1742 36.7938 25.5081 36.6551 25.7912 36.8165C25.9487 36.8815 25.9788 37.0243 25.8814 37.2448C25.7196 37.5595 25.7811 37.7184 26.066 37.7216C26.2558 37.7237 26.4153 37.6147 26.5444 37.3946C26.6418 37.1741 26.912 37.0663 27.355 37.0712C27.6082 37.0741 27.7682 36.9176 27.835 36.6018C27.9338 36.2548 28.0068 35.3852 28.0539 33.9931C28.0993 32.7592 28.1246 31.9049 28.1299 31.4302C28.1672 30.9243 28.2024 30.6081 28.2354 30.4819C28.3005 30.3244 28.3975 30.1356 28.5266 29.9154C28.72 29.6011 28.6906 29.395 28.4385 29.2973C28.2177 29.2315 28.0943 28.9453 28.0682 28.4386C28.0422 27.9319 28.1407 27.6165 28.3636 27.4924C28.5866 27.3682 28.7066 26.5308 28.7239 24.9801C28.7348 23.9991 28.7102 23.3658 28.6501 23.0803C28.5899 22.7948 28.4493 22.635 28.2281 22.6008C26.7734 22.4897 24.9516 22.6594 22.7628 23.1098C21.8425 23.3211 21.1287 23.4714 20.6213 23.5607C20.1139 23.65 19.7018 23.7087 19.385 23.7369C19.1002 23.7337 18.9107 23.6999 18.8164 23.6356C18.7222 23.5712 18.6758 23.4758 18.6772 23.3492C18.6807 23.0327 18.9205 22.8138 19.3966 22.6925C19.5868 22.663 20.4123 22.4348 21.873 22.0079C23.3656 21.5498 24.5868 21.3102 25.5366 21.2891C26.1066 21.2638 27.1043 21.1957 28.5298 21.085C29.9557 20.9426 31.2856 20.8941 32.5194 20.9394C35.6514 21.0692 37.3072 21.5941 37.4869 22.5139C37.5473 22.7678 37.2572 23.2393 36.6166 23.9285C35.9762 24.5861 35.2093 25.2422 34.3158 25.8969C33.9329 26.1775 33.8362 26.3347 34.0257 26.3684C34.1836 26.4018 34.7849 26.4085 35.8296 26.3885C38.1089 26.3506 39.4489 26.8086 39.8498 27.7625C40.2826 28.6852 39.6991 29.9289 38.0991 31.4937C36.4665 33.153 34.6475 34.4937 32.6422 35.5159C32.0377 35.794 31.7342 36.0438 31.7318 36.2654ZM48.3663 29.3765C48.3677 29.2499 48.2102 29.1848 47.8937 29.1813C47.6093 29.1465 47.2766 29.1745 46.8958 29.2652C46.5153 29.3242 46.2136 29.4158 45.9907 29.54C44.9397 30.1296 44.0268 31.1006 43.2522 32.453C42.5092 33.8057 42.3571 34.6744 42.7959 35.0591C43.1096 35.3158 43.6013 35.2105 44.2712 34.7432C46.823 32.9675 47.8475 31.9186 47.3446 31.5965C47.1562 31.4678 47.1256 31.3725 47.2529 31.3106C47.4111 31.3124 47.6354 31.0617 47.9259 30.5585C48.2167 30.0237 48.3635 29.6297 48.3663 29.3765ZM54.5352 33.9078C54.6006 33.7186 54.7916 33.6258 55.108 33.6293C55.4245 33.6329 55.8379 33.4634 56.3481 33.1209C56.7946 32.8094 57.0485 32.7489 57.1097 32.9395C57.2025 33.1304 57.0738 33.3189 56.7236 33.5049C56.6916 33.5362 56.644 33.5515 56.5807 33.5508C56.1672 33.7361 55.7202 34.0793 55.2399 34.5803C54.7276 35.1127 54.0269 35.5005 53.138 35.7438C52.2807 35.9875 51.5845 35.9798 51.0493 35.7206C50.7649 35.6858 50.4825 35.4611 50.2023 35.0465C49.9224 34.6003 49.7053 34.2023 49.5509 33.8524C49.4282 33.5029 49.2441 32.9786 48.9987 32.2795L48.2307 33.0306C45.6719 35.4392 43.9178 36.6383 42.9684 36.6277C41.7975 36.6147 41.2512 35.9281 41.3296 34.568C41.4425 32.9551 42.2513 31.3816 43.7559 29.8474C44.1723 29.409 44.6195 29.0341 45.0978 28.7229C45.9589 28.1312 46.8167 27.84 47.6712 27.8495C48.5573 27.8594 49.2503 28.1519 49.7503 28.7272C50.2194 29.2388 50.4632 30.0803 50.4819 31.2516C50.4692 32.3908 50.6339 33.2314 50.9761 33.7733C51.2254 34.1242 51.4602 34.3484 51.6807 34.4458C51.9015 34.5115 52.3448 34.5006 53.0104 34.4131C53.9292 34.3284 54.4375 34.1599 54.5352 33.9078ZM63.7766 29.3105C63.7851 28.551 63.4398 28.2939 62.7408 28.5394C61.8828 28.8463 61.1945 29.5508 60.6758 30.6528C60.2869 31.4714 60.0551 32.3867 59.9806 33.3987C59.9018 34.7904 60.3028 35.7286 61.1837 36.2131C62.0961 36.698 63.4573 36.6815 65.2671 36.1636C65.4261 36.1021 65.9182 35.9651 66.7434 35.7527C67.5691 35.5087 68.1248 35.3408 68.4107 35.249C68.6969 35.1256 69.1577 34.9567 69.7931 34.7422C70.4289 34.496 70.9857 34.2332 71.4635 33.9537C71.9731 33.6745 72.4829 33.3637 72.9931 33.0212C73.5994 32.5848 73.9311 32.636 73.9884 33.1747C74.0148 33.6497 73.8374 33.9484 73.4562 34.0708C73.3926 34.1017 73.3291 34.1169 73.2658 34.1161C73.0759 34.114 72.9323 34.2232 72.8349 34.4437C72.7695 34.6329 72.6575 34.7424 72.4989 34.7723C72.1501 34.8317 71.2601 35.17 69.829 35.787C68.4295 36.4045 67.5393 36.7586 67.1585 36.8493C66.4289 36.9994 65.7617 37.2294 65.1569 37.5392C64.743 37.7561 63.9508 37.8423 62.7802 37.7976C61.6096 37.7529 60.8199 37.6175 60.4109 37.3914C59.8761 37.1006 59.4995 36.8116 59.2812 36.5243C59.0948 36.2057 58.9113 35.634 58.7305 34.809C58.3976 33.4444 58.5076 32.0846 59.0608 30.7298C59.6459 29.3437 60.5923 28.199 61.9 27.2956C62.6339 26.7658 63.3941 26.7109 64.1807 27.1311C64.9993 27.52 65.3563 28.1412 65.2519 28.9946C65.1826 29.5319 64.9101 29.8453 64.4344 29.935C63.9902 30.025 63.771 29.8169 63.7766 29.3105ZM77.124 31.9752C77.3139 31.9773 77.6661 31.6172 78.1805 30.895C78.7597 30.0469 79.8012 28.8874 81.3051 27.4165C82.8411 25.9144 83.8154 25.1023 84.2283 24.9803C84.8313 24.8288 85.2104 24.8963 85.3654 25.1828C85.5205 25.4694 85.2951 25.8151 84.6892 26.2198C83.7328 26.8422 82.4054 28.0934 80.707 29.9736C79.0086 31.8537 78.1573 32.9837 78.1531 33.3634C78.843 33.9408 79.9318 34.2219 81.4195 34.2068C82.9393 34.1604 84.3034 33.8749 85.512 33.3503C86.6249 32.8879 87.1806 32.72 87.1792 32.8466C87.1782 32.9416 87.0336 33.1299 86.7456 33.4115C86.2973 33.8813 85.5642 34.3479 84.5462 34.8113C83.5602 35.2435 82.4809 35.5321 81.3082 35.6773C80.1355 35.8226 79.1089 35.6371 78.2285 35.1209L76.8587 34.4884L76.9336 36.2933C76.9881 37.0852 76.9824 37.5916 76.9167 37.8124C76.8509 38.0332 76.6913 38.158 76.4378 38.1869C76.1839 38.2473 75.994 38.2452 75.8681 38.1805C75.7742 38.0845 75.6812 37.9094 75.5891 37.6552C75.4973 37.3693 75.4545 36.9574 75.4604 36.4194C75.4981 35.8818 75.522 35.1541 75.5322 34.2363C75.7918 25.1238 75.8129 20.3765 75.5956 19.9943C75.4103 19.5808 75.4935 19.2177 75.8451 18.9051C76.1328 18.6551 76.4167 18.7374 76.697 19.152C76.8527 19.3753 77.0208 19.9152 77.2012 20.7717C77.3819 21.5967 77.4392 22.1354 77.3731 22.3878C77.2416 22.8295 77.1276 24.5373 77.0313 27.5114C76.9665 30.4858 76.9975 31.9738 77.124 31.9752Z" fill="#454545"/>
</svg>
