<svg width="32" height="32" viewBox="0 0 32 32" fill="none" xmlns="http://www.w3.org/2000/svg">
<path d="M22.4762 7.5H9.52381C8.40788 7.5 7.5 8.40788 7.5 9.52381V22.4762C7.5 23.5921 8.40788 24.5 9.52381 24.5H22.4762C23.5921 24.5 24.5 23.5921 24.5 22.4762V9.52381C24.5 8.40788 23.5921 7.5 22.4762 7.5ZM20.8596 14.9164C20.7667 14.9255 20.6735 14.9302 20.5803 14.9306C20.0767 14.9307 19.5811 14.8054 19.1381 14.5659C18.6951 14.3265 18.3187 13.9806 18.0428 13.5593V18.229C18.0428 18.9116 17.8404 19.5789 17.4612 20.1465C17.0819 20.7141 16.5429 21.1565 15.9122 21.4177C15.2816 21.6789 14.5876 21.7473 13.9181 21.6141C13.2486 21.4809 12.6336 21.1522 12.1509 20.6695C11.6682 20.1869 11.3395 19.5719 11.2063 18.9024C11.0732 18.2328 11.1415 17.5389 11.4027 16.9082C11.664 16.2776 12.1063 15.7385 12.6739 15.3593C13.2415 14.98 13.9088 14.7776 14.5914 14.7776C14.6635 14.7776 14.7339 14.7841 14.8047 14.7886V16.4894C14.7339 16.4809 14.6643 16.4679 14.5914 16.4679C14.1242 16.4679 13.6762 16.6535 13.3458 16.9838C13.0155 17.3142 12.8299 17.7622 12.8299 18.2294C12.8299 18.6966 13.0155 19.1447 13.3458 19.475C13.6762 19.8054 14.1242 19.9909 14.5914 19.9909C15.5645 19.9909 16.4238 19.2243 16.4238 18.2513L16.4408 10.3204H18.0679C18.1423 11.0274 18.4628 11.6857 18.9734 12.1804C19.484 12.675 20.1522 12.9744 20.8612 13.0262V14.9164" fill="#000"/>
</svg>
