<svg width="145" height="64" viewBox="0 0 145 64" fill="none" xmlns="http://www.w3.org/2000/svg">
<g filter="url(#filter0_g_1_131)">
<rect x="3.77051" y="2" width="139.713" height="56.0782" transform="rotate(1.8095 3.77051 2)" fill="#CACCAE" fill-opacity="0.8"/>
<path d="M47.3973 37.5197C47.3992 37.4596 47.6738 36.8524 48.221 35.6979C48.7683 34.5434 49.0283 33.9207 49.0011 33.8297C48.9073 33.9469 48.9097 33.8718 49.0083 33.6046C49.1378 33.3082 49.4762 32.5828 50.0234 31.4283C51.2784 28.7939 52.0059 27.1644 52.2059 26.5397C52.2726 26.3315 52.4819 25.8875 52.8339 25.2075C53.1859 24.5276 53.353 23.9921 53.3354 23.6009C53.2501 23.448 53.2974 23.3744 53.4775 23.3801C53.5985 23.3539 53.7102 23.1471 53.8126 22.7597C53.9159 22.3423 54.1317 22.1689 54.46 22.2394C54.7001 22.2469 54.8478 22.3267 54.9031 22.4787C54.9884 22.6316 55.023 22.9632 55.0069 23.4735C54.9718 24.584 54.8113 26.3366 54.5253 28.7312C54.2394 31.1258 54.0632 33.3737 53.9968 35.4747C53.8622 39.7369 53.9345 42.2029 54.2138 42.8728C54.8548 44.4554 54.7851 45.2344 54.0047 45.2097C53.3744 45.1898 52.9986 44.2465 52.8773 42.3799C52.756 40.5132 52.7759 37.0286 52.9371 31.926C52.9533 31.4157 52.9906 30.7108 53.049 29.8113C53.1227 28.4315 53.0994 27.7397 52.9794 27.736C52.8903 27.7031 52.666 28.1467 52.3064 29.0667C52.1749 29.4231 51.5596 30.8308 50.4604 33.2899C49.3912 35.7499 48.7073 37.4258 48.4087 38.3178C48.2744 38.7642 48.0205 39.1918 47.6471 39.6007C47.3036 40.0105 46.9997 40.121 46.7352 39.9324C46.4708 39.7438 46.1431 39.1776 45.7523 38.2338C45.6689 38.0209 45.5147 37.6705 45.2898 37.1827C45.0658 36.6648 44.8844 36.2234 44.7457 35.8585C44.638 35.4645 44.5598 35.0865 44.5111 34.7244C44.5197 34.4542 44.4377 34.1963 44.2652 33.9505C43.9521 33.3997 43.3499 32.0137 42.4586 29.7922C41.5983 27.5416 41.0111 26.156 40.6971 25.6353C40.1084 30.0034 39.7643 33.7632 39.6647 36.9148C39.5699 39.9164 39.3512 41.607 39.0087 41.9868C38.6681 42.3065 38.3783 42.4476 38.1391 42.41C37.9609 42.3443 37.8836 41.9362 37.9073 41.1858C37.932 40.4054 38.0856 38.3972 38.3681 35.1613C38.449 34.5028 38.5427 33.4392 38.6492 31.9703C38.7857 30.5024 38.9015 29.2141 38.9966 28.1054C39.1217 26.9977 39.2576 26.0255 39.4042 25.1889C39.6494 24.0849 39.7458 23.412 39.6933 23.17C39.6662 23.079 39.714 22.9903 39.8369 22.9041C39.9599 22.8178 40.1118 22.7625 40.2929 22.7382C40.6249 22.6886 40.9644 22.8796 41.3113 23.3112C41.6592 23.7128 41.826 24.1387 41.8118 24.5889C41.8004 24.9491 41.8848 25.132 42.0649 25.1377C42.3227 25.5365 42.6291 26.2973 42.9842 27.4202C43.3394 28.5431 43.6866 29.4404 44.0259 30.1121C44.4505 30.9367 44.8947 32.0925 45.3585 33.5794C45.9563 35.5813 46.3602 36.5855 46.5703 36.5922C46.6904 36.596 46.7738 36.8089 46.8206 37.231C46.8683 37.6231 46.9521 37.8211 47.0722 37.8249C47.2823 37.8315 47.3907 37.7298 47.3973 37.5197ZM67.8136 29.827C68.1138 29.8365 68.307 29.9027 68.3932 30.0256C68.5095 30.1495 68.5329 30.3605 68.4633 30.6588C68.4238 30.958 68.29 31.3894 68.0619 31.9531C67.6385 32.9913 67.4211 33.6905 67.4098 34.0507C67.3984 34.4109 67.2876 34.5877 67.0775 34.581C66.9575 34.5772 66.8556 34.9496 66.7718 35.6981C66.689 36.4165 66.5876 36.7739 66.4676 36.7701C66.2227 36.9126 66.0391 37.4927 65.9168 38.5103C65.7955 39.498 65.8004 40.2944 65.9315 40.8994C66.0879 41.6555 66.0267 42.1643 65.7481 42.4259C65.4384 42.7166 65.1955 42.7991 65.0192 42.6733C64.8738 42.5185 64.6925 42.0771 64.4751 41.3491C64.2315 40.5002 64.245 39.5992 64.5154 38.6463C64.8535 37.4552 64.9485 36.8272 64.8003 36.7625C64.653 36.6677 64.0864 37.0103 63.1003 37.7904C62.0232 38.5976 61.4387 39.0299 61.3467 39.087C60.7331 39.4883 60.0357 39.6916 59.2543 39.697C58.503 39.7033 57.9684 39.5061 57.6506 39.1055C57.3327 38.7048 57.0637 38.1856 56.8435 37.5477C56.6242 36.8797 56.5789 36.4126 56.7075 36.1463C56.837 35.8499 56.9737 35.3284 57.1175 34.5818C57.4445 32.7894 57.9832 31.9051 58.7336 31.9288C59.7241 31.9601 59.8604 32.4001 59.1426 33.2487C58.5186 33.9801 58.1997 35.0367 58.1861 36.4183C58.2035 37.7709 58.5273 38.4572 59.1577 38.4771C59.4878 38.4875 59.9269 38.3812 60.4747 38.1581C61.0235 37.9051 61.3003 37.7035 61.305 37.5534C61.3088 37.4334 61.4608 37.3781 61.761 37.3875C62.0611 37.397 62.785 36.834 63.9325 35.6985C65.111 34.5339 65.8753 33.6417 66.2254 33.0218C66.5774 32.3419 66.8403 31.6291 67.0141 30.8834C67.1569 30.1668 67.4234 29.8147 67.8136 29.827ZM76.6816 37.7688C76.674 38.0089 76.7603 38.1318 76.9404 38.1375C77.2105 38.146 77.4107 38.4678 77.5408 39.1029C77.671 39.738 77.6558 40.2182 77.4953 40.5436C77.058 41.0706 76.5959 41.4316 76.109 41.6266C75.6522 41.8224 74.9406 41.9953 73.9745 42.145C73.1293 42.2685 72.5445 42.235 72.22 42.0445C70.7448 41.1867 70.0153 40.5026 70.0314 39.9924C70.039 39.7522 70.0897 39.5736 70.1835 39.4564C70.2783 39.3091 70.3848 39.2674 70.503 39.3312C70.6521 39.366 70.7529 39.5044 70.8053 39.7464C70.9383 40.2914 71.3617 40.6804 72.0755 40.9132C72.8192 41.1471 73.6751 41.1591 74.6432 40.9493C75.3983 40.8229 75.9795 40.4958 76.3868 39.9678C76.6054 39.7043 76.6111 39.5242 76.4039 39.4275C76.1375 39.2989 76.0072 39.1446 76.0129 38.9645C76.0205 38.7244 75.5901 38.0798 74.7219 37.0309C73.3062 35.2435 72.8095 33.8457 73.2319 32.8375C73.4582 32.3339 73.9996 31.8402 74.8561 31.3565C75.7436 30.8437 76.701 30.4984 77.7281 30.3205C79.6033 29.9291 80.9193 30.1209 81.6759 30.8959C81.9666 31.2056 82.1101 31.4204 82.1063 31.5405C82.1334 31.6315 82.0386 31.7787 81.8219 31.9822C81.6052 32.1857 81.4518 32.286 81.3617 32.2831C81.2726 32.2503 81.1268 32.1105 80.9243 31.8637C80.5802 31.3421 79.8805 31.1397 78.8253 31.2566C77.8009 31.3444 76.7226 31.7159 75.5902 32.3712C74.9776 32.7424 74.5886 33.1658 74.4234 33.6413C74.2891 34.0878 74.4269 34.4827 74.8366 34.8261C75.0982 35.1048 75.1821 35.3028 75.0883 35.42C75.0545 35.5391 75.3278 35.9233 75.9082 36.5726C76.4886 37.2219 76.7464 37.6206 76.6816 37.7688ZM85.1428 37.0897C85.065 39.5509 84.9511 40.7792 84.801 40.7744C84.3817 40.7312 84.1042 40.482 83.9683 40.0271C83.8625 39.573 83.8052 38.5347 83.7963 36.9119C83.7464 34.687 83.7999 33.4718 83.9566 33.2665C84.0514 33.1192 84.1288 33.0466 84.1888 33.0485C84.2798 33.0213 84.4735 33.0725 84.7698 33.202C84.978 33.2687 85.1041 33.5581 85.148 34.0703C85.1929 34.5524 85.1911 35.5589 85.1428 37.0897ZM86.678 24.1586C87.0748 23.9608 87.3276 24.0439 87.4363 24.4078C87.575 24.7728 87.6325 25.3304 87.6088 26.0808C87.586 26.8012 87.6154 27.2979 87.6969 27.5708C87.8861 28.2378 87.8452 28.5821 87.5741 28.6035C87.274 28.5941 86.9411 28.1929 86.5756 27.4002C86.2663 26.7294 86.107 26.0634 86.0979 25.4021C86.1187 24.7418 86.3121 24.3273 86.678 24.1586ZM94.229 34.222C94.2518 33.5016 93.9292 33.251 93.2613 33.4703C92.4414 33.7448 91.7747 34.3998 91.2613 35.4352C90.8764 36.2042 90.6388 37.068 90.5484 38.0266C90.4467 39.3454 90.8089 40.2432 91.6351 40.7199C92.4913 41.1977 93.783 41.2084 95.51 40.7522C95.6619 40.6969 96.1314 40.5766 96.9185 40.3911C97.7065 40.1756 98.237 40.0271 98.5099 39.9456C98.7839 39.8341 99.2243 39.6828 99.8313 39.4916C100.439 39.2705 100.972 39.0319 101.431 38.776C101.92 38.5211 102.41 38.2361 102.9 37.9211C103.484 37.5189 103.798 37.5739 103.842 38.086C103.857 38.5372 103.683 38.8171 103.319 38.9258C103.258 38.9539 103.198 38.967 103.138 38.9651C102.958 38.9595 102.819 39.0602 102.723 39.2675C102.657 39.4457 102.549 39.5474 102.398 39.5727C102.066 39.6223 101.215 39.9259 99.845 40.4836C98.5053 41.0421 97.654 41.3608 97.291 41.4394C96.5959 41.5677 95.9584 41.7729 95.3787 42.055C94.9818 42.2528 94.2286 42.3192 93.119 42.2541C92.0093 42.189 91.2628 42.0452 90.8792 41.8228C90.3775 41.5365 90.0258 41.255 89.8242 40.9782C89.6536 40.6724 89.4906 40.1264 89.3352 39.3403C89.0458 38.0392 89.1766 36.7514 89.7276 35.4769C90.3096 34.1732 91.2297 33.1057 92.4878 32.2741C93.1943 31.7856 93.9166 31.7484 94.6546 32.1623C95.4237 32.5471 95.7503 33.1433 95.6347 33.9509C95.5585 34.4592 95.2939 34.7513 94.8409 34.8272C94.4178 34.9039 94.2138 34.7022 94.229 34.222Z" fill="#454545"/>
</g>
<defs>
<filter id="filter0_g_1_131" x="0.799756" y="0.8" width="143.814" height="62.8619" filterUnits="userSpaceOnUse" color-interpolation-filters="sRGB">
<feFlood flood-opacity="0" result="BackgroundImageFix"/>
<feBlend mode="normal" in="SourceGraphic" in2="BackgroundImageFix" result="shape"/>
<feTurbulence type="fractalNoise" baseFrequency="2 2" numOctaves="3" seed="4075" />
<feDisplacementMap in="shape" scale="2.4000000953674316" xChannelSelector="R" yChannelSelector="G" result="displacedImage" width="100%" height="100%" />
<feMerge result="effect1_texture_1_131">
<feMergeNode in="displacedImage"/>
</feMerge>
</filter>
</defs>
</svg>
