<svg width="140" height="66" viewBox="0 0 140 66" fill="none" xmlns="http://www.w3.org/2000/svg">
<g filter="url(#filter0_g_1_140)">
<rect x="2" y="6.33105" width="134.497" height="57.9116" transform="rotate(-1.84556 2 6.33105)" fill="#CACCAE" fill-opacity="0.8"/>
<path d="M46.5715 32.9884C46.5631 32.925 46.3015 32.6529 45.7865 32.1721C45.3033 31.6872 45.065 31.3474 45.0717 31.153C45.0341 30.8675 44.9202 30.7373 44.7299 30.7623C44.381 30.8082 44.4211 30.2544 44.8501 29.101C45.0605 28.4925 45.2896 28.0268 45.5375 27.7038C46.0058 27.0936 46.7996 26.5052 47.9188 25.9385C49.3345 25.1715 50.7187 24.7797 52.0717 24.7631C53.4564 24.7422 54.4684 25.077 55.1077 25.7672C55.5276 26.2605 55.5609 26.5143 55.2079 26.5285C54.95 26.5301 54.5485 26.4216 54.0035 26.2029C52.8417 25.7104 51.2379 25.9053 49.1921 26.7874C47.1421 27.6379 46.055 28.5714 45.9306 29.588C45.8254 30.5053 47.1787 32.0858 49.9906 34.3294C51.407 35.5305 52.1277 36.2262 52.1527 36.4165C52.1903 36.702 52.3042 36.8322 52.4945 36.8072C52.5938 36.8264 52.8659 37.1778 53.3108 37.8614C53.7514 38.5132 54.0373 38.8467 54.1683 38.8617C54.3478 38.9994 54.415 39.2649 54.3699 39.658C54.2054 40.6153 53.1007 41.293 51.0558 41.6911C49.0109 42.0892 46.86 42.0495 44.6031 41.572C42.8069 41.1629 41.7473 40.8345 41.4243 40.5865C41.2007 40.3578 41.1681 40.2331 41.3267 40.2122C41.517 40.1872 42.4163 40.2786 44.0247 40.4865C47.1104 40.8872 49.0931 40.9974 49.9729 40.8172C51.7515 40.3573 52.6054 39.8578 52.5345 39.3186C52.5011 39.0649 52.3651 38.8892 52.1264 38.7915C51.9152 38.658 51.7908 38.4485 51.7533 38.163C51.7475 37.8734 51.6273 37.6956 51.3927 37.6297C51.154 37.532 51.0222 37.388 50.9971 37.1977C51.0397 37.0308 50.3169 36.3192 48.8287 35.063C47.3364 33.7751 46.584 33.0836 46.5715 32.9884ZM60.073 24.2913C60.84 24.4808 61.2899 24.712 61.4226 24.985C61.587 25.2537 61.708 26.1735 61.7856 27.7443C61.9383 29.8861 61.8501 33.7534 61.5211 39.3465C61.4492 40.5175 61.6028 40.949 61.9817 40.641C62.2422 40.4132 62.5485 39.9212 62.9007 39.165C64.1336 36.5183 65.1269 34.8712 65.8806 34.2235C66.2788 33.8162 66.7629 33.817 67.3329 34.226C67.9347 34.6309 68.3933 35.2965 68.7088 36.223C68.7614 36.3774 68.9212 36.8565 69.1883 37.6603C69.4829 38.4282 69.7007 38.9803 69.8417 39.3167C70.0479 39.9026 70.2131 40.3003 70.3375 40.5098C70.4936 40.7152 70.6467 40.7757 70.797 40.6914C71.2602 40.5337 71.5127 40.6134 71.5544 40.9305C71.5811 41.3788 71.3691 41.7293 70.9184 41.9822C70.7681 42.0665 70.6296 42.117 70.5027 42.1337C69.744 42.0076 69.1823 41.662 68.8176 41.097C68.4804 40.496 68.2029 39.6129 67.9851 38.4477C67.7798 37.3777 67.3304 36.2914 66.6368 35.1888C66.0141 35.8515 65.343 37.0045 64.6235 38.648C64.1035 39.8457 63.5584 40.8531 62.9883 41.6702C62.4182 42.4873 61.9587 42.9188 61.6098 42.9647C60.9121 43.0565 60.4785 42.5811 60.3091 41.5387C60.1672 40.4603 60.1894 38.0535 60.3756 34.3185C60.4592 32.5006 60.4016 30.3463 60.2031 27.8557C60.0212 25.492 59.9778 24.3038 60.073 24.2913ZM75.2279 38.21C75.4018 39.5319 75.646 40.4681 75.9604 41.0184C76.3013 41.5653 76.7696 41.8534 77.3651 41.8826C78.1228 41.9174 78.8923 41.7355 79.6737 41.3369C80.4815 40.9347 81.1494 40.3896 81.6775 39.7015C82.2905 38.8409 82.5866 37.8202 82.5658 36.6395C82.5679 35.4289 82.2357 34.4371 81.5692 33.6641C80.8727 32.8681 80.0062 32.619 78.9695 32.9168C77.9592 33.211 76.8944 34.0101 75.7749 35.3139C75.3776 35.7696 75.1549 36.1217 75.1069 36.37C75.0589 36.6184 75.0992 37.2317 75.2279 38.21ZM73.7752 37.5942C73.73 37.2505 73.9011 36.6093 74.2887 35.6708C74.6728 34.7058 75.0711 34.1558 75.4837 34.0208C75.794 33.9262 76.0101 33.8306 76.1318 33.7339C76.2765 33.6072 76.4327 33.4656 76.6004 33.3091C76.7646 33.1261 76.9949 32.9345 77.2913 32.7341C77.9301 32.2735 78.6724 31.9876 79.5185 31.8763C80.0702 31.7768 80.4588 31.766 80.6842 31.844C80.9097 31.9219 81.222 32.1498 81.6214 32.5276C82.3269 33.1879 82.8654 34.1122 83.2369 35.3006C83.6313 36.459 83.7256 37.4821 83.5196 38.3699C83.4235 38.8667 83.0082 39.5937 82.2734 40.5511C81.3779 41.7178 80.3642 42.4967 79.2322 42.8877C78.0967 43.2522 76.9717 43.185 75.8571 42.6862C75.4257 42.4739 75.01 41.8697 74.61 40.8733C74.2065 39.8505 73.9282 38.7575 73.7752 37.5942ZM90.4475 30.1206C90.46 30.2158 90.4808 30.9874 90.51 32.4355C90.5391 33.8837 90.5725 34.7505 90.6101 35.0359C90.6434 35.2897 90.7294 35.6978 90.8679 36.2604C91.0899 36.2312 91.4372 35.9274 91.9096 35.349C92.3779 34.7388 92.6959 34.213 92.8637 33.7715C93.0824 33.2265 93.0561 32.5362 92.7849 31.7007C92.5453 30.861 92.1785 30.2801 91.6844 29.9579C90.7997 29.3644 90.3874 29.4187 90.4475 30.1206ZM89.3195 27.8007C89.5732 27.7673 90.1078 27.9067 90.9233 28.2189C91.7704 28.5269 92.3893 28.8165 92.7799 29.0878C93.2423 29.4142 93.542 29.7297 93.6788 30.0343C93.8157 30.339 93.9488 30.9829 94.0782 31.9662C94.2158 33.0128 94.2421 33.7031 94.157 34.037C94.0994 34.3349 93.8343 34.7731 93.3619 35.3515C92.1883 36.732 91.4588 37.441 91.1734 37.4786C90.7611 37.5328 90.5778 38.3474 90.6237 39.9224C90.6587 40.4341 90.5055 42.2127 90.164 45.2584C89.8501 48.2681 89.6314 50.0393 89.5078 50.5718C89.4035 51.0049 89.4444 51.1932 89.6305 51.1364C89.8483 51.0755 90.0645 50.7567 90.279 50.1799C90.4894 49.5715 90.7185 49.1057 90.9664 48.7827C91.1592 48.5315 91.2544 48.519 91.2519 48.7452C91.2644 48.8403 91.2535 49.0031 91.2193 49.2334C91.1375 50.0831 90.9397 50.7867 90.6258 51.3443C90.312 51.9018 89.9489 52.2077 89.5366 52.2619C89.156 52.312 88.9214 52.2461 88.8329 52.0641C88.7487 51.9139 88.6702 51.4402 88.5976 50.6431C88.5175 49.2985 88.5819 47.5799 88.7906 45.4874C89.0269 43.3591 89.1625 41.9376 89.1976 41.2232C89.2394 40.3142 89.2457 39.7488 89.2165 39.5267C89.1831 39.273 89.0692 39.1428 88.8747 39.1361C88.5809 39.1102 88.3059 39.2271 88.0496 39.4866C87.7934 39.7462 87.4866 39.8672 87.1294 39.8497C86.7997 39.7963 86.614 39.611 86.5723 39.2938C86.518 38.8815 87.2525 38.3331 88.7758 37.6488C88.9703 37.6554 89.1239 37.4739 89.2366 37.1042C89.3493 36.7344 89.3998 36.2599 89.3881 35.6807C89.3764 35.1014 89.3489 34.5242 89.3055 33.9492C89.2939 33.3699 89.2705 32.8245 89.2355 32.3128C89.228 31.7653 89.2297 31.4101 89.2405 31.2474C89.3006 30.7232 89.2906 30.4019 89.2105 30.2833C89.1579 30.1289 89.0048 30.0684 88.751 30.1018C88.4021 30.1477 88.0445 30.3722 87.678 30.7753C87.3074 31.1467 87.143 31.491 87.1847 31.8082C87.2223 32.0937 87.0825 32.2572 86.7653 32.299C86.5433 32.3282 86.3839 32.2201 86.2871 31.9747C86.1861 31.6976 86.1761 31.3762 86.257 31.0107C86.3338 30.6134 86.4824 30.2712 86.7028 29.984C86.8998 29.7645 87.3167 29.5 87.9535 29.1903C88.5862 28.849 88.9652 28.541 89.0904 28.2664C89.1797 27.9643 89.2561 27.809 89.3195 27.8007Z" fill="#454545"/>
</g>
<defs>
<filter id="filter0_g_1_140" x="0.8" y="0.799512" width="138.693" height="64.6131" filterUnits="userSpaceOnUse" color-interpolation-filters="sRGB">
<feFlood flood-opacity="0" result="BackgroundImageFix"/>
<feBlend mode="normal" in="SourceGraphic" in2="BackgroundImageFix" result="shape"/>
<feTurbulence type="fractalNoise" baseFrequency="2 2" numOctaves="3" seed="4075" />
<feDisplacementMap in="shape" scale="2.4000000953674316" xChannelSelector="R" yChannelSelector="G" result="displacedImage" width="100%" height="100%" />
<feMerge result="effect1_texture_1_140">
<feMergeNode in="displacedImage"/>
</feMerge>
</filter>
</defs>
</svg>
