<svg width="182" height="68" viewBox="0 0 182 68" fill="none" xmlns="http://www.w3.org/2000/svg">
<rect width="177.232" height="56.1183" transform="matrix(0.99768 -0.0680764 0.0912386 0.995829 0 12.0654)" fill="#BABC9F" fill-opacity="0.9"/>
<g filter="url(#filter0_g_1_137)">
<path d="M33.378 52.766C33.5959 51.9395 34.0478 51.3703 34.4298 50.5671C36.3199 46.3925 38.2149 42.2575 40.1497 38.1184C41.9555 34.2338 43.8807 30.337 46.035 26.6577C46.164 26.4032 46.298 26.1884 46.422 25.8942C46.2976 25.8668 46.213 25.8353 46.1335 25.8435C42.3087 26.1974 38.5635 26.5432 34.7684 26.8137C32.4158 27.0159 30.2228 27.5233 27.8702 27.7255C26.1693 27.9812 26.4412 26.6266 27.8338 26.483C30.4649 26.2521 33.1806 26.0527 35.772 25.8258C38.1296 25.6633 40.4424 25.4651 42.7502 25.2273C44.0285 25.1358 45.2669 25.0484 46.5402 24.9172C46.9829 24.9117 47.2066 24.7681 47.4101 24.4657C47.5291 24.1318 47.7327 23.8295 47.9115 23.6502C48.0556 23.5148 48.3291 23.4464 48.4983 23.5094C48.6675 23.5723 48.7027 23.8501 48.6034 24.0211C48.549 24.2278 48.4895 24.3947 48.3605 24.6492C48.5695 24.7081 48.7286 24.6917 48.848 24.6794C52.3892 24.3144 55.9652 23.9057 59.5065 23.5408C62.2469 23.2182 65.0665 22.5658 67.8518 22.2788C69.9208 22.0656 70.1662 23.3669 68.0724 23.7033C66.088 23.948 63.7999 24.023 61.7309 24.2362C57.2745 24.6954 52.7385 25.1629 48.2423 25.6262C47.8046 25.6713 47.6308 25.8902 47.467 26.1885C46.0478 28.988 44.5738 31.6726 43.1995 34.5077C40.9517 39.0408 38.8732 43.6369 36.7051 48.1618C35.941 49.7682 35.3617 51.8781 34.6374 53.4804C34.2554 54.2836 32.7333 54.36 33.378 52.766ZM53.811 35.3438C53.4382 35.5832 53.2095 35.6872 52.9909 35.8705C51.9224 36.664 51.0583 37.7983 50.1841 38.8532C49.2752 39.9519 48.3612 41.0109 47.4921 42.1055C47.3132 42.2847 47.1444 42.5433 46.9107 42.6076C46.6422 42.7157 46.3239 42.7485 46.1845 42.6021C46.0102 42.4994 45.8457 42.1546 45.9399 41.9438C45.9295 41.5429 46.0484 41.209 46.2022 40.8314C47.6947 37.0193 49.3464 33.1908 51.2619 29.5361C52.5571 27.0308 54.8195 22.2951 56.4384 20.1183C56.9846 19.3384 57.9855 20.2402 57.449 20.7779C54.7234 25.0387 51.5776 31.393 49.4543 35.9535C48.9185 37.1344 48.3827 38.3152 47.8968 39.5713C48.2549 39.5344 48.3492 39.3237 48.4832 39.1089C49.1886 38.3126 49.8491 37.4807 50.5197 36.7282C51.1208 36.0632 51.7667 35.4338 52.4573 34.8401C52.5964 34.6649 52.9047 34.5528 53.1334 34.4488C54.2768 33.929 54.9787 34.3792 55.0252 35.7011C55.0356 36.102 54.9665 36.5111 54.9422 36.9559C54.873 37.365 54.8835 37.7659 54.8792 38.3694C55.2918 38.1259 55.6399 38.0096 55.9431 37.8577C56.6489 37.383 57.3446 36.8289 58.0554 36.3938C59.5615 35.5552 59.747 36.7019 58.738 37.3285C57.7788 38.0304 56.7648 38.6173 55.7608 39.2836C55.6117 39.3793 55.378 39.4436 55.0995 39.4723C54.3883 39.5858 53.9004 39.2341 53.81 38.5198C53.7346 37.9245 53.7786 37.317 53.8176 36.6697C53.8122 36.3085 53.8017 35.9076 53.811 35.3438ZM66.6814 35.6255C66.9051 35.4819 67.1338 35.3779 67.3624 35.2739C67.6757 35.2015 67.8797 35.2206 68.074 35.482C68.2286 35.7475 68.1444 36.0376 67.9207 36.1812C66.0966 37.3742 63.9735 38.1156 61.8797 38.452C60.4574 38.679 58.2489 38.7458 58.5346 36.5455C58.7621 35.4768 58.9259 35.1785 59.741 34.6121C60.6407 34.0772 61.6949 33.8077 62.6498 33.7093C63.0528 33.708 63.4012 33.9133 63.531 34.3019C63.6608 34.6906 63.5469 35.0641 63.2139 35.2994C62.7368 35.6702 62.1701 35.9698 61.5586 36.2338C61.0962 36.4021 60.5442 36.4992 60.0269 36.5525C59.2312 36.6345 59.2864 37.071 59.6897 37.3912C60.8549 38.3164 65.6979 36.7721 66.6814 35.6255ZM62.517 34.8888C63.1177 33.9023 60.8458 35.0611 59.6433 36.0694C60.4492 36.0668 61.9557 35.5497 62.517 34.8888ZM72.7635 34.6772C73.1865 34.8346 73.4797 34.6034 73.7779 34.4118C74.8116 33.6621 75.7658 32.9205 76.8095 32.2502C77.2171 31.967 77.7042 31.6756 78.1716 31.547C78.9075 31.3104 79.5048 31.5704 79.7246 32.3518C79.9043 32.8157 79.9746 33.3713 79.9553 33.8557C79.9866 35.0585 80.5788 35.2788 81.5732 34.8548C82.2693 34.6222 83.164 34.0476 83.8102 33.7398C84.4217 33.4758 84.6655 33.4909 84.81 33.677C84.9993 33.8987 84.975 34.3434 84.3685 34.6471C83.4441 35.3052 82.4698 35.888 81.331 36.1259C79.9187 36.4323 79.1171 35.8315 78.9015 34.4467C78.8613 34.1292 78.8709 33.887 78.8307 33.5695C78.6901 32.4584 78.7739 31.8467 77.79 32.6718C76.791 33.3777 75.5986 34.4654 74.5996 35.1714C74.2716 35.4464 73.8541 35.6502 73.4662 35.7706C72.6608 36.0948 72.1033 35.8306 71.7193 35.026C71.2507 34.1898 71.4689 33.6849 70.5994 34.458C69.6653 35.3582 68.722 36.8223 67.793 37.7622C67.5794 37.9853 67.4056 38.2042 67.1471 38.3916C66.6898 38.5995 66.2965 38.3587 66.3108 37.8346C66.3204 37.5924 66.3799 37.4254 66.5089 37.1709C66.955 35.9189 67.4062 34.7066 67.9269 33.4067C67.9466 33.2439 67.996 32.9976 68.1053 32.9059C68.2494 32.7705 68.4731 32.6268 68.6423 32.6898C68.7667 32.7172 68.956 32.9389 68.9811 33.1373C68.9367 33.4233 68.8475 33.6737 68.798 33.92C68.6493 34.3373 68.1236 35.5975 68.1441 36.0778C68.5466 35.7549 69.3161 34.5098 69.7534 34.1431C70.0415 33.8722 70.3398 33.6807 70.638 33.4892C71.4681 33.0418 72.1449 33.2937 72.5788 34.1736C72.6387 34.3282 72.7036 34.5225 72.7635 34.6772ZM103.655 41.1722L103.24 40.7627L101.876 41.9284C100.449 43.0705 98.9464 44.0996 97.2347 44.668C96.5709 44.9173 95.9219 45.0445 95.2729 45.1716C94.8888 45.2414 94.5231 45.2188 94.1575 45.1961C93.2582 45.0175 92.7126 44.2898 92.8047 43.3456C92.8713 42.9166 93.0199 42.4189 93.1798 42.0105C93.8009 40.4691 94.717 39.1083 95.7339 37.8277L99.0494 33.9282C99.1835 33.7938 99.2617 33.6953 99.34 33.5968C99.6902 33.2592 99.7942 32.8866 99.7041 32.4135C99.5647 31.3123 99.6081 30.2224 99.8903 29.1079C100.131 27.9072 100.757 26.8779 101.715 26.0857C102.203 25.6435 102.769 25.3439 103.43 25.306C104.392 25.2671 104.949 25.8429 104.887 26.784C104.816 27.4244 104.616 27.9878 104.322 28.5306C103.633 29.7775 102.72 30.9268 101.804 32.0464C101.543 32.3747 101.283 32.7031 100.988 33.0048C100.746 33.2408 100.716 33.4851 100.758 33.8125C101.088 35.2257 101.59 36.5609 102.319 37.7823C102.629 38.3232 102.935 38.8343 103.309 39.3988C104.286 38.5143 105.075 37.5886 105.764 36.583C106.248 35.8698 106.643 35.1658 107.09 34.3961C107.633 33.4356 108.264 33.4008 107.896 34.5543C107.602 35.3383 107.267 36.0362 106.716 36.696C105.911 37.7437 105.01 38.7411 104.149 39.8248L103.903 40.031C103.982 40.1737 103.997 40.2928 104.101 40.4026C104.449 40.7587 104.796 41.1149 105.166 41.4085C105.674 41.8385 106.174 42.2091 106.887 42.3467C107.32 42.4227 107.164 42.8609 106.847 42.984C106.414 43.1492 106.093 43.0013 105.709 42.8299C104.925 42.368 104.278 41.8014 103.655 41.1722ZM99.8818 34.2947C99.7514 34.4589 99.5837 34.5666 99.4571 34.7606C98.82 35.4594 98.1568 36.191 97.5533 36.9165C96.3128 38.3409 95.1655 39.7857 94.3207 41.4708C94.0528 41.9808 93.8856 42.5709 93.6886 43.164C93.5551 43.7808 93.8466 44.1729 94.4362 44.293C94.5929 44.3372 94.8056 44.3454 95.0145 44.3239C95.5777 44.2357 96.0812 44.1537 96.6071 44.009C98.8446 43.296 100.671 41.9621 102.348 40.4024C102.668 40.0678 102.665 40.0381 102.433 39.6399C101.943 38.8762 101.487 38.1393 101.109 37.3039C100.66 36.3853 100.32 35.3652 99.8818 34.2947ZM100.528 32.2381C101.694 30.9421 102.685 29.6942 103.482 28.3458C103.653 28.0267 103.769 27.7434 103.906 27.3976C104.04 27.022 104.166 26.5869 103.856 26.2871C103.487 25.9936 103.084 26.1557 102.659 26.3804C102.431 26.4943 102.267 26.6318 102.074 26.7724C101.507 27.3131 101.105 27.9576 100.834 28.679C100.529 29.615 100.463 30.5263 100.52 31.4551C100.52 31.6962 100.513 31.8779 100.528 32.2381ZM139.064 19.2399C136.253 19.629 133.689 20.1254 131.043 20.7629C129.784 21.0586 128.561 21.3835 127.302 21.6792C126.879 21.7559 126.374 21.9737 125.996 21.6146C126.012 21.215 126.304 21.1518 126.587 21.0232C127.711 20.7083 128.835 20.3935 129.996 20.108C133.668 19.1659 137.368 18.4528 141.061 17.9396C142.009 17.8088 142.957 17.678 143.872 17.5505C146.744 17.1219 147.43 17.814 144.144 18.3848C143.011 18.6342 141.866 18.7853 140.726 18.9692C140.398 19.003 140.115 19.1316 139.922 19.45C138.194 22.3477 136.696 25.7523 135.218 28.79C133.47 32.3198 131.686 35.8203 129.905 39.3536C129.59 40.0162 128.997 41.6361 128.505 42.2174C128.386 42.3292 128.271 42.4737 128.062 42.6611C128.85 42.5799 129.539 42.5088 130.192 42.4084C133.179 42.1006 136.121 41.6979 139.047 41.4296C142.145 41.2099 142.026 41.5869 139.113 42.2187C137.845 42.4489 136.541 42.6497 135.26 42.7816C133.16 42.9981 131.165 43.2699 129.073 43.5519C127.14 43.7842 125.241 44.0131 123.304 44.2127C122.356 44.3436 121.371 44.445 120.46 44.6052C119.841 44.7022 119.701 44.6503 119.299 44.3601C119.302 43.8623 119.692 43.7889 120.053 43.7517C120.894 43.5656 121.78 43.4742 122.597 43.3569C124.037 43.1753 125.449 43.0299 126.856 42.8517C127.053 42.8314 127.246 42.7784 127.344 42.7682C129.245 39.9191 130.5 35.9094 132.014 32.901C134.135 28.6363 136.226 23.8771 138.732 19.7716C138.818 19.6632 138.892 19.4566 139.064 19.2399Z" fill="#454545"/>
</g>
<defs>
<filter id="filter0_g_1_137" x="24.2861" y="8.91841" width="127.444" height="47.0489" filterUnits="userSpaceOnUse" color-interpolation-filters="sRGB">
<feFlood flood-opacity="0" result="BackgroundImageFix"/>
<feBlend mode="normal" in="SourceGraphic" in2="BackgroundImageFix" result="shape"/>
<feTurbulence type="fractalNoise" baseFrequency="2 2" numOctaves="3" seed="4075" />
<feDisplacementMap in="shape" scale="2.4000000953674316" xChannelSelector="R" yChannelSelector="G" result="displacedImage" width="100%" height="100%" />
<feMerge result="effect1_texture_1_137">
<feMergeNode in="displacedImage"/>
</feMerge>
</filter>
</defs>
</svg>
