<svg width="32" height="32" viewBox="0 0 32 32" fill="none" xmlns="http://www.w3.org/2000/svg">
<path fill-rule="evenodd" clip-rule="evenodd" d="M7 12C7 9.23858 9.23858 7 12 7H20C22.7614 7 25 9.23858 25 12V20C25 22.7614 22.7614 25 20 25H12C9.23858 25 7 22.7614 7 20V12ZM12 9C10.3431 9 9 10.3431 9 12V20C9 21.6569 10.3431 23 12 23H20C21.6569 23 23 21.6569 23 20V12C23 10.3431 21.6569 9 20 9H12ZM19.5968 11.2145C19.5968 10.6622 20.0445 10.2145 20.5968 10.2145H20.6068C21.1591 10.2145 21.6068 10.6622 21.6068 11.2145C21.6068 11.7668 21.1591 12.2145 20.6068 12.2145H20.5968C20.0445 12.2145 19.5968 11.7668 19.5968 11.2145ZM16 13C14.3431 13 13 14.3431 13 16C13 17.6569 14.3431 19 16 19C17.6569 19 19 17.6569 19 16C19 14.3431 17.6569 13 16 13ZM11 16C11 13.2386 13.2386 11 16 11C18.7614 11 21 13.2386 21 16C21 18.7614 18.7614 21 16 21C13.2386 21 11 18.7614 11 16Z" fill="#000"/>
</svg>
