<svg width="186" height="62" viewBox="0 0 186 62" fill="none" xmlns="http://www.w3.org/2000/svg">
<g filter="url(#filter0_g_1_128)">
<rect x="2.62402" y="2" width="182.024" height="56.0782" transform="rotate(0.637233 2.62402 2)" fill="#CCCEAD" fill-opacity="0.8"/>
<path d="M34.0341 26.4631C34.1027 27.6031 34.0066 28.9311 33.7456 30.4471C33.5121 31.9363 33.3911 33.0605 33.3826 33.8199C33.3736 34.6335 33.4084 35.1628 33.487 35.4078C33.5657 35.6528 33.7261 35.858 33.9684 36.0234C34.1299 36.1337 34.2785 36.1896 34.4141 36.1911C34.5497 36.1926 34.6444 36.2073 34.6984 36.235C34.7797 36.2359 34.8468 36.3044 34.8995 36.4406C35.0053 36.6859 34.7859 36.9005 34.2414 37.0843C33.8876 37.1888 33.6431 37.2268 33.5078 37.1982C33.3728 37.1424 33.158 36.9502 32.8633 36.6214C32.5957 36.293 32.4232 35.952 32.3457 35.5985C32.2954 35.2454 32.2901 34.4994 32.3299 33.3607C32.4029 31.6798 32.4936 30.84 32.6021 30.8412C32.7377 30.8427 32.8077 30.6401 32.8122 30.2333C32.8228 29.2841 32.8454 28.4706 32.8801 27.7929C32.9162 26.9796 32.9625 26.4783 33.0189 26.2891C33.0752 26.0998 33.2254 26.0066 33.4695 26.0093C33.8492 26.0135 34.0374 26.1648 34.0341 26.4631ZM41.7055 24.4328C41.7034 24.6226 41.3883 24.9039 40.7603 25.2767C40.1598 25.6226 39.6832 25.7936 39.3306 25.7897C39.0323 25.7864 38.8847 25.6491 38.8877 25.3779C38.8898 25.1881 38.5791 25.0761 37.9556 25.0421C37.3322 25.008 35.8269 25.0048 33.4397 25.0325C29.5603 25.0979 27.417 25.1418 27.0099 25.1644C26.3859 25.1846 26.0752 25.0727 26.0779 24.8286C26.0824 24.4218 27.6592 24.1003 30.8081 23.8641C31.6507 23.7107 32.6544 23.6947 33.8194 23.8162C34.9843 23.9376 36.2584 24.0061 37.6415 24.0214C40.3535 24.0516 41.7082 24.1887 41.7055 24.4328ZM42.2318 33.837C42.2167 35.193 42.3279 36.1707 42.5654 36.77C42.8299 37.3697 43.2599 37.7271 43.8554 37.8422C44.6132 37.9862 45.4142 37.9138 46.2582 37.6248C47.1294 37.3361 47.8803 36.8834 48.511 36.2665C49.252 35.4882 49.6969 34.5031 49.8458 33.3114C50.0221 32.0928 49.8303 31.0464 49.2704 30.1722C48.6837 29.2706 47.8471 28.8951 46.7605 29.0458C45.701 29.1967 44.5139 29.8481 43.1991 30.9998C42.7336 31.4014 42.4587 31.7239 42.3747 31.967C42.2906 32.2102 42.243 32.8335 42.2318 33.837ZM40.8577 33.008C40.8617 32.6554 41.1262 32.0345 41.6515 31.1453C42.177 30.2289 42.6572 29.7325 43.092 29.6559C43.4181 29.6053 43.6493 29.5401 43.7858 29.4602C43.9498 29.3536 44.1274 29.2335 44.3188 29.1C44.5104 28.9394 44.7699 28.7795 45.0971 28.6204C45.8065 28.2486 46.5951 28.0675 47.4629 28.0771C48.0327 28.0564 48.4255 28.1014 48.6413 28.2123C48.857 28.3232 49.1388 28.5976 49.4865 29.0354C50.1018 29.8017 50.511 30.8098 50.7141 32.0598C50.9446 33.2829 50.8923 34.3266 50.5572 35.1908C50.3891 35.6772 49.8663 36.3494 48.9888 37.2076C47.9193 38.2535 46.7866 38.8919 45.5906 39.1227C44.3949 39.3264 43.2718 39.0969 42.2214 38.4343C41.8176 38.1586 41.486 37.4903 41.2265 36.4296C40.9674 35.3418 40.8445 34.2013 40.8577 33.008ZM62.0159 27.9542C62.2871 27.9572 62.4628 28.0134 62.543 28.1228C62.6502 28.2325 62.6752 28.4226 62.618 28.6932C62.5879 28.9641 62.475 29.3562 62.2794 29.8694C61.9163 30.8146 61.7329 31.45 61.7293 31.7754C61.7257 32.1009 61.629 32.2626 61.4391 32.2604C61.3306 32.2592 61.2455 32.5973 61.1837 33.2747C61.1223 33.925 61.0373 34.2495 60.9288 34.2483C60.7103 34.3815 60.5553 34.9087 60.4637 35.8299C60.3724 36.724 60.3915 37.4429 60.521 37.9869C60.6762 38.6667 60.6304 39.1273 60.3836 39.3686C60.1094 39.6368 59.8915 39.7158 59.73 39.6055C59.5959 39.4684 59.424 39.0732 59.2143 38.4199C58.9787 37.6578 58.9742 36.844 59.2008 35.9786C59.484 34.8968 59.5582 34.328 59.4232 34.2723C59.2885 34.1894 58.7831 34.5093 57.9071 35.2319C56.9495 35.9807 56.4297 36.3817 56.3477 36.4351C55.8011 36.8087 55.1751 37.0052 54.4696 37.0245C53.7913 37.0441 53.305 36.8759 53.0106 36.52C52.7162 36.1641 52.4637 35.7002 52.253 35.1283C52.0427 34.5292 51.9932 34.1083 52.1043 33.8654C52.2158 33.5954 52.3296 33.122 52.4456 32.4452C52.7078 30.8207 53.1779 30.0122 53.8559 30.0198C54.7509 30.0297 54.8821 30.4245 54.2496 31.204C53.6996 31.876 53.4313 32.8359 53.4445 34.0837C53.4852 35.3047 53.7903 35.9184 54.3598 35.9247C54.6581 35.9281 55.0526 35.824 55.5432 35.6124C56.034 35.3738 56.2802 35.1866 56.2817 35.051C56.283 34.9426 56.4192 34.8898 56.6904 34.8929C56.9616 34.8959 57.6048 34.3741 58.62 33.3276C59.6626 32.2542 60.3363 31.4345 60.6409 30.8683C60.9462 30.2478 61.1704 29.5993 61.3135 28.9228C61.4292 28.2732 61.6634 27.9503 62.0159 27.9542ZM69.9229 27.9201C70.0865 27.8406 70.2366 27.7609 70.3731 27.681C70.5096 27.6011 70.5916 27.5478 70.619 27.521C70.6464 27.4942 70.7008 27.4812 70.7822 27.4821C70.8907 27.4833 70.9448 27.4975 70.9445 27.5246C70.9716 27.5249 71.066 27.5666 71.2279 27.6498C71.4171 27.7062 71.5792 27.7622 71.7142 27.818C72.1195 27.9581 72.3755 28.1101 72.4822 28.2741C72.6159 28.4383 72.5738 28.5734 72.3556 28.6795C72.1645 28.7859 71.8385 28.8365 71.3775 28.8314C70.8893 28.8259 70.4953 28.8894 70.1955 29.0216C69.8956 29.1539 69.4855 29.4477 68.9651 29.903C67.541 31.1349 66.4599 33.2249 65.7219 36.1732C65.5794 36.7954 65.424 37.3497 65.2559 37.8361C65.088 38.2953 64.9078 38.6459 64.7153 38.8879C64.5498 39.1302 64.413 39.2371 64.3049 39.2088C64.0346 39.1244 63.867 38.336 63.8023 36.8435C63.7646 35.3513 63.8362 33.7925 64.017 32.1671C64.1686 30.7312 64.3145 29.8106 64.4546 29.4053C64.595 28.9729 64.8279 28.7585 65.1534 28.7621C65.4517 28.7654 65.5439 29.0106 65.43 29.4975C65.3444 29.8763 65.2566 30.4585 65.1665 31.2441C65.1035 32.03 65.0554 32.694 65.0222 33.2361C65.0162 33.7785 65.0399 34.0906 65.0932 34.1726C65.2288 34.1741 65.5609 33.5811 66.0894 32.3935C67.1996 30.1275 68.4774 28.6364 69.9229 27.9201ZM94.8712 35.1548C95.1723 34.914 95.4591 34.7273 95.7318 34.5947C96.0317 34.4625 96.2638 34.3159 96.4284 34.155C96.62 33.9943 96.8405 33.6849 97.0897 33.2265C97.2283 32.9569 97.2851 32.7269 97.2601 32.5368C97.2351 32.3467 97.1026 32.0604 96.8628 31.678C96.2767 30.7221 94.9746 29.5142 92.9566 28.0542C92.1762 27.5031 91.6758 27.3755 91.4555 27.6714C91.2352 27.9673 91.0202 29.0091 90.8105 30.797C90.7195 31.6639 90.5774 32.2455 90.3842 32.5417C90.1901 32.9193 90.0459 33.6907 89.9516 34.8559C89.8576 35.9941 89.8913 36.6183 90.0528 36.7286C90.2415 36.8392 90.2389 37.0697 90.0452 37.4202C89.9617 37.6091 90.0015 37.6909 90.1645 37.6656C90.3817 37.6409 90.9541 37.3896 91.8816 36.9117C93.2458 36.1945 94.2423 35.6089 94.8712 35.1548ZM90.7459 25.6292C90.7176 25.7374 90.8931 25.8072 91.2725 25.8385C91.6519 25.8698 91.8274 25.9396 91.7991 26.0478C91.906 26.1846 92.4175 26.5293 93.3336 27.082C94.2496 27.6346 94.7746 27.9931 94.9084 28.1573C95.0955 28.4035 95.6187 28.9111 96.4781 29.6801C97.2836 30.4214 97.8313 31.1734 98.1212 31.9361C98.4381 32.6991 98.4312 33.3228 98.1003 33.8074C97.1351 35.2342 94.3222 36.9659 89.6614 39.0026C88.3533 39.5577 87.279 39.8169 86.4386 39.7805C85.5982 39.744 85.1814 39.4139 85.1884 38.7901C85.192 38.4647 85.2346 38.2888 85.3163 38.2626C85.3437 38.2358 85.4111 38.2772 85.5183 38.3869C85.7329 38.6063 86.1385 38.7193 86.7351 38.726C87.3318 38.7326 87.7939 38.6428 88.1214 38.4566C88.449 38.2704 88.5757 37.8513 88.5016 37.1996C88.4006 36.5203 88.8804 33.6235 89.9408 28.5089C89.9975 28.2926 90.0409 28.0489 90.071 27.778C90.1286 27.4803 90.1718 27.2502 90.2008 27.0878C90.2568 26.9257 90.285 26.8311 90.2853 26.804C90.2856 26.7768 90.2454 26.7357 90.1646 26.6806C90.0841 26.5983 89.9632 26.502 89.8016 26.3917C89.6401 26.2814 89.4515 26.1709 89.2357 26.06C89.0203 25.9219 88.7913 25.7838 88.5487 25.6455C87.4166 25.009 86.3218 24.6714 85.2645 24.6325C83.8551 24.5354 83.1934 24.284 83.2793 23.8781C83.2805 23.7696 83.3495 23.6619 83.4863 23.5549C84.0061 23.1538 85.2392 23.2489 87.1855 23.8401C89.1318 24.4314 90.3186 25.0277 90.7459 25.6292ZM105.551 31.856C105.552 31.7475 105.417 31.6918 105.146 31.6887C104.902 31.6589 104.617 31.6829 104.291 31.7606C103.965 31.8112 103.706 31.8897 103.515 31.9961C102.614 32.5014 101.832 33.3335 101.168 34.4925C100.532 35.6517 100.401 36.3961 100.777 36.7258C101.046 36.9458 101.467 36.8555 102.042 36.4551C104.228 34.9334 105.106 34.0345 104.675 33.7585C104.514 33.6482 104.488 33.5665 104.597 33.5135C104.732 33.515 104.925 33.3001 105.173 32.8689C105.423 32.4106 105.549 32.0729 105.551 31.856ZM110.838 35.7392C110.894 35.5771 111.057 35.4975 111.328 35.5005C111.6 35.5036 111.954 35.3583 112.391 35.0648C112.774 34.7979 112.991 34.746 113.044 34.9093C113.123 35.073 113.013 35.2345 112.713 35.3939C112.685 35.4207 112.645 35.4338 112.59 35.4332C112.236 35.592 111.853 35.8861 111.441 36.3155C111.002 36.7717 110.402 37.1041 109.64 37.3126C108.905 37.5214 108.309 37.5148 107.85 37.2927C107.606 37.2629 107.364 37.0703 107.124 36.715C106.884 36.3326 106.698 35.9915 106.566 35.6917C106.461 35.3922 106.303 34.9429 106.093 34.3438L105.435 34.9875C103.242 37.0516 101.739 38.0791 100.925 38.0701C99.9216 38.0589 99.4535 37.4705 99.5207 36.305C99.6174 34.9228 100.311 33.5743 101.6 32.2596C101.957 31.8838 102.34 31.5626 102.75 31.2959C103.488 30.7888 104.223 30.5393 104.955 30.5474C105.715 30.5559 106.308 30.8066 106.737 31.2996C107.139 31.738 107.348 32.4591 107.364 33.4629C107.353 34.4392 107.494 35.1595 107.787 35.6239C108.001 35.9246 108.202 36.1167 108.391 36.2002C108.58 36.2566 108.96 36.2472 109.531 36.1722C110.318 36.0996 110.754 35.9553 110.838 35.7392ZM119.479 29.1222C119.723 29.125 120.307 28.9958 121.232 28.7349C122.185 28.4742 122.947 28.2251 123.519 27.9873C123.683 27.9078 123.846 27.8553 124.009 27.83C124.172 27.7776 124.295 27.7518 124.376 27.7527C124.484 27.7539 124.539 27.7681 124.538 27.7952C124.537 27.9308 123.772 28.3699 122.245 29.1123C120.718 29.8277 119.806 30.1837 119.507 30.1804C119.263 30.1777 119.112 30.3794 119.053 30.7856C119.022 31.1921 119.083 31.7353 119.238 32.4151C119.421 33.0681 119.671 33.7625 119.988 34.4984C120.359 35.3162 121.088 35.6091 122.176 35.3771C123.291 35.1182 124.574 34.3731 126.025 33.1415L126.682 32.5792C126.51 33.4453 126.329 33.8637 126.139 33.8344C125.923 33.7778 125.717 33.9654 125.523 34.3972C125.356 34.7479 124.931 35.1365 124.248 35.5629C123.593 35.9624 122.912 36.2532 122.204 36.4352C121.416 36.6434 120.765 36.5955 120.253 36.2915C119.741 35.9874 119.26 35.3447 118.81 34.3632C118.28 33.2181 118.019 32.3201 118.026 31.6693C118.031 31.2353 117.993 30.9772 117.913 30.895C117.86 30.7859 117.697 30.7841 117.425 30.8895C116.908 31.0465 116.269 31.1208 115.51 31.1124C114.778 31.0771 114.386 30.9642 114.334 30.7738C114.307 30.7193 114.349 30.6519 114.458 30.5718C114.595 30.4919 114.758 30.4124 114.949 30.3331C115.14 30.2539 115.344 30.1883 115.561 30.1365C115.779 30.0575 115.983 30.0056 116.173 29.9806C116.364 29.9284 116.513 29.9165 116.621 29.9449C117.273 29.8436 117.668 29.6988 117.806 29.5105C117.972 29.2682 118.059 28.7403 118.068 27.9267C118.081 26.7876 118.267 25.8539 118.628 25.1256C118.851 24.6127 119.099 24.2629 119.372 24.0761C119.672 23.8896 119.916 23.9329 120.103 24.2063C120.155 24.3967 120.068 24.9246 119.841 25.7901C119.247 28.0076 119.126 29.1183 119.479 29.1222ZM137.341 29.8905C137.346 29.5108 137.28 29.2931 137.145 29.2374C136.93 29.0993 136.372 29.283 135.471 29.7883C134.598 30.2668 133.887 30.7743 133.338 31.3107C132.762 31.8738 132.226 32.5731 131.728 33.4084C131.231 34.2437 131.049 34.7299 131.183 34.867C131.425 35.1138 132.216 34.675 133.558 33.5508C134.16 33.0421 134.542 32.7887 134.705 32.7905C134.922 32.7929 135.415 32.378 136.184 31.5457C136.952 30.7134 137.338 30.1617 137.341 29.8905ZM137.786 37.5036C137.783 37.7748 137.413 38.0555 136.678 38.3457C135.969 38.6361 135.058 38.8701 133.944 39.0476C131.934 39.3236 130.61 38.8749 129.972 37.7015C129.76 37.238 129.396 37.0577 128.879 37.1604C128.227 37.3159 127.889 37.2037 127.866 36.8237C127.843 36.4166 128.159 36.081 128.813 35.8171C128.867 35.8177 128.921 35.8047 128.976 35.7782C129.221 35.7267 129.425 35.6476 129.589 35.5409C129.753 35.4342 129.822 35.3265 129.796 35.2177C129.694 34.6741 130.22 33.6628 131.376 32.1839C132.559 30.6781 133.655 29.6325 134.665 29.047C135.348 28.6478 136.001 28.4652 136.624 28.4992C137.275 28.5336 137.747 28.7694 138.041 29.2066C138.547 29.9989 138.416 30.8111 137.647 31.6434C137.291 32.0191 136.374 32.7413 134.897 33.8098C133.448 34.8786 132.464 35.5458 131.946 35.8112C131.454 36.077 131.14 36.3041 131.002 36.4924C130.865 36.6536 130.849 36.8704 130.954 37.1428C131.271 37.96 132.421 38.1627 134.406 37.7508C136.5 37.2859 137.613 37.122 137.748 37.2591C137.774 37.2865 137.787 37.368 137.786 37.5036ZM145.43 35.7985C145.428 36.0154 145.508 36.1248 145.671 36.1266C145.915 36.1293 146.101 36.4162 146.231 36.9872C146.36 37.5583 146.355 37.9922 146.216 38.289C145.831 38.773 145.42 39.1074 144.984 39.2924C144.576 39.4778 143.936 39.647 143.067 39.8C142.306 39.9272 141.777 39.9077 141.48 39.7417C140.133 38.9944 139.461 38.3902 139.466 37.9291C139.469 37.7122 139.511 37.5499 139.594 37.4423C139.677 37.3076 139.772 37.268 139.88 37.3235C140.015 37.3521 140.109 37.4752 140.161 37.6928C140.291 38.1824 140.68 38.5258 141.329 38.7229C142.005 38.9203 142.778 38.9153 143.648 38.708C144.328 38.5799 144.847 38.2738 145.205 37.7895C145.397 37.5476 145.399 37.3848 145.21 37.3014C144.967 37.1902 144.847 37.0532 144.848 36.8905C144.851 36.6735 144.45 36.0995 143.647 35.1684C142.336 33.5806 141.861 32.3276 142.224 31.4095C142.419 30.9506 142.899 30.4948 143.663 30.0422C144.455 29.5628 145.313 29.2333 146.237 29.0537C147.923 28.6656 149.115 28.8145 149.813 29.5003C150.081 29.7745 150.215 29.9659 150.213 30.0744C150.24 30.156 150.157 30.2907 149.965 30.4784C149.773 30.6662 149.636 30.7596 149.555 30.7587C149.474 30.7307 149.339 30.6071 149.152 30.388C148.832 29.9234 148.196 29.7536 147.245 29.8786C146.322 29.9768 145.355 30.3322 144.345 30.9448C143.799 31.2914 143.455 31.6809 143.315 32.1133C143.202 32.5189 143.333 32.8729 143.71 33.1755C143.951 33.4223 144.031 33.5995 143.948 33.707C143.92 33.8152 144.174 34.1571 144.71 34.7326C145.246 35.3082 145.486 35.6635 145.43 35.7985Z" fill="#454545"/>
</g>
<defs>
<filter id="filter0_g_1_128" x="0.800244" y="0.8" width="185.037" height="60.4991" filterUnits="userSpaceOnUse" color-interpolation-filters="sRGB">
<feFlood flood-opacity="0" result="BackgroundImageFix"/>
<feBlend mode="normal" in="SourceGraphic" in2="BackgroundImageFix" result="shape"/>
<feTurbulence type="fractalNoise" baseFrequency="2 2" numOctaves="3" seed="4075" />
<feDisplacementMap in="shape" scale="2.4000000953674316" xChannelSelector="R" yChannelSelector="G" result="displacedImage" width="100%" height="100%" />
<feMerge result="effect1_texture_1_128">
<feMergeNode in="displacedImage"/>
</feMerge>
</filter>
</defs>
</svg>
