<svg width="32" height="32" viewBox="0 0 32 32" fill="none" xmlns="http://www.w3.org/2000/svg">
<path d="M26.5401 10.42C26.4213 9.94541 26.1794 9.51057 25.8387 9.15941C25.4981 8.80824 25.0708 8.55318 24.6001 8.42C22.8801 8 16.0001 8 16.0001 8C16.0001 8 9.12008 8 7.40008 8.46C6.92933 8.59318 6.50206 8.84824 6.16143 9.19941C5.8208 9.55057 5.57887 9.98541 5.46008 10.46C5.1453 12.2056 4.99132 13.9763 5.00008 15.75C4.98886 17.537 5.14285 19.3213 5.46008 21.08C5.59104 21.5398 5.83839 21.9581 6.17823 22.2945C6.51806 22.6308 6.9389 22.8738 7.40008 23C9.12008 23.46 16.0001 23.46 16.0001 23.46C16.0001 23.46 22.8801 23.46 24.6001 23C25.0708 22.8668 25.4981 22.6118 25.8387 22.2606C26.1794 21.9094 26.4213 21.4746 26.5401 21C26.8524 19.2676 27.0064 17.5103 27.0001 15.75C27.0113 13.963 26.8573 12.1787 26.5401 10.42Z" stroke="#000" stroke-width="2" stroke-linecap="round" stroke-linejoin="round"/>
<path d="M13.7501 19.02L19.5001 15.75L13.7501 12.48V19.02Z" stroke="#000" stroke-width="2" stroke-linecap="round" stroke-linejoin="round"/>
</svg>
